<svg xmlns="http://www.w3.org/2000/svg" width="1280" height="720" viewBox="0 0 1280 720" role="img" aria-label="An empty application window">
  <!-- A stand-in screenshot: an empty window drawn in Catppuccin latte. A
       screenshot keeps its own colors, so this one names them outright. -->
  <rect x="0.5" y="0.5" width="1279" height="719" rx="16" fill="#e6e9ef" stroke="#bcc0cc"/>
  <path d="M16.5 0.5h1247a16 16 0 0 1 16 16v47.5H0.5V16.5a16 16 0 0 1 16-16z" fill="#dce0e8"/>
  <line x1="0.5" y1="64" x2="1279.5" y2="64" stroke="#bcc0cc"/>
  <circle cx="40" cy="32" r="9" fill="#d20f39"/>
  <circle cx="72" cy="32" r="9" fill="#df8e1d"/>
  <circle cx="104" cy="32" r="9" fill="#40a02b"/>
  <rect x="440" y="18" width="400" height="28" rx="14" fill="#ccd0da"/>
  <rect x="48" y="112" width="240" height="560" rx="10" fill="#dce0e8"/>
  <rect x="80" y="152" width="176" height="20" rx="10" fill="#ccd0da"/>
  <rect x="80" y="196" width="140" height="20" rx="10" fill="#ccd0da"/>
  <rect x="80" y="240" width="160" height="20" rx="10" fill="#ccd0da"/>
  <rect x="336" y="112" width="896" height="56" rx="10" fill="#ccd0da"/>
  <rect x="336" y="208" width="896" height="464" rx="10" fill="#eff1f5" stroke="#ccd0da" stroke-width="2" stroke-dasharray="12 10"/>
  <text x="784" y="452" text-anchor="middle" font-family="system-ui, sans-serif" font-size="40" font-weight="600" fill="#6c6f85">Your screenshot</text>
</svg>
